<svg width="16" height="16" viewBox="0 0 16 16" fill="none" xmlns="http://www.w3.org/2000/svg">
<path fill-rule="evenodd" clip-rule="evenodd" d="M2 4.00004C2 3.63185 2.29848 3.33337 2.66667 3.33337H13C13.3682 3.33337 13.6667 3.63185 13.6667 4.00004C13.6667 4.36823 13.3682 4.66671 13 4.66671H2.66667C2.29848 4.66671 2 4.36823 2 4.00004ZM2 8.00004C2 7.63185 2.29848 7.33337 2.66667 7.33337H13C13.3682 7.33337 13.6667 7.63185 13.6667 8.00004C13.6667 8.36823 13.3682 8.66671 13 8.66671H2.66667C2.29848 8.66671 2 8.36823 2 8.00004ZM2.66667 11.3334C2.29848 11.3334 2 11.6319 2 12C2 12.3682 2.29848 12.6667 2.66667 12.6667H7.66667C8.03486 12.6667 8.33333 12.3682 8.33333 12C8.33333 11.6319 8.03486 11.3334 7.66667 11.3334H2.66667Z" fill="#ADB3BD"/>
</svg>
