<svg width="24" height="24" viewBox="0 0 24 24" fill="none" xmlns="http://www.w3.org/2000/svg">
<path d="M18.7069 8.20697C18.5194 8.0195 18.2651 7.91418 17.9999 7.91418C17.7348 7.91418 17.4804 8.0195 17.2929 8.20697L12.7069 12.793C12.5168 12.9755 12.2635 13.0774 11.9999 13.0774C11.7364 13.0774 11.4831 12.9755 11.2929 12.793L6.70692 8.20697C6.51832 8.02481 6.26571 7.92402 6.00352 7.9263C5.74132 7.92858 5.49051 8.03374 5.3051 8.21915C5.11969 8.40456 5.01452 8.65537 5.01224 8.91757C5.00997 9.17977 5.11076 9.43237 5.29292 9.62097L9.87792 14.207C10.1565 14.4856 10.4872 14.7066 10.8513 14.8574C11.2153 15.0082 11.6054 15.0858 11.9994 15.0858C12.3934 15.0858 12.7836 15.0082 13.1476 14.8574C13.5116 14.7066 13.8423 14.4856 14.1209 14.207L18.7069 9.62097C18.8944 9.43344 18.9997 9.17913 18.9997 8.91397C18.9997 8.64881 18.8944 8.3945 18.7069 8.20697Z" fill="#374957"/>
</svg>
